<?xml version="1.0" standalone="no"?>
<!DOCTYPE svg PUBLIC "-//W3C//DTD SVG 1.1//EN" "http://www.w3.org/Graphics/SVG/1.1/DTD/svg11.dtd" >
<svg>
<metadata>
Created by FontForge 20090622 at Wed Aug 16 06:28:31 2017
 By deploy user
Copr. Luc as  de Groot 1994
</metadata>
<defs>
<font id="TheSans-8ExtraBold" horiz-adv-x="519" >
  <font-face 
    font-family="TheSans"
    font-weight="700"
    font-stretch="normal"
    units-per-em="1000"
    panose-1="2 0 8 3 0 0 0 0 0 0"
    ascent="800"
    descent="-200"
    x-height="497"
    cap-height="675"
    bbox="-65 -457 1756.76 1180"
    underline-thickness="20"
    underline-position="-150"
    unicode-range="U+0020-U+FFFD"
  />
<missing-glyph horiz-adv-x="500" 
 />
    <glyph glyph-name=".notdef" unicode="&#xfffd;" horiz-adv-x="500" 
 />
    <glyph glyph-name=".null" horiz-adv-x="0" 
 />
    <glyph glyph-name="nonmarkingreturn" horiz-adv-x="333" 
 />
    <glyph glyph-name="space" unicode=" " horiz-adv-x="218" 
 />
    <glyph glyph-name="exclam" unicode="!" horiz-adv-x="306" 
d="M243 723l-22 -522h-133l-24 522h179zM152 161q38 0 64 -25t26 -62q0 -36 -26 -61t-64 -25t-64 25t-26 61q0 37 26 62t64 25z" />
    <glyph glyph-name="quotedbl" unicode="&#x22;" horiz-adv-x="430" 
d="M189 755l-18 -270h-114l-19 270h151zM392 755l-18 -270h-114l-19 270h151z" />
    <glyph glyph-name="numbersign" unicode="#" horiz-adv-x="703" 
d="M648 167h-129l-18 -167h-133l18 167h-107l-18 -167h-132l17 167h-121v112h133l14 127h-118v113h130l15 156h133l-16 -156h107l16 156h133l-16 -156h122v-113h-134l-14 -127h118v-112zM397 279l14 127h-107l-13 -127h106z" />
    <glyph glyph-name="dollar" unicode="$" horiz-adv-x="497" 
d="M457 190q0 -69 -44.5 -122t-119.5 -72v-117h-108v109q-60 1 -118 12l10 136q59 -20 124 -20q94 0 94 60q0 26 -26.5 42.5t-64 30t-75 31.5t-64 57.5t-26.5 98.5q0 67 42.5 117t112.5 66v97h107v-89q57 -2 101 -12l-11 -128q-58 16 -110 16q-83 0 -83 -53
q0 -17 14.5 -30.5t37 -23t50.5 -19.5t55.5 -25t50 -34.5t37 -52.5t14.5 -75z" />
    <glyph glyph-name="percent" unicode="%" horiz-adv-x="823" 
d="M375 532q0 -83 -52 -134t-125 -51q-77 0 -121.5 45t-44.5 127t51 132t123 50q75 0 122 -42t47 -127zM250 525q0 40 -11 56t-35 16q-20 0 -33 -19t-13 -54q0 -73 44 -73q21 0 34.5 19.5t13.5 54.5zM710 624l-491 -652l-111 79l492 652zM789 159q0 -83 -52 -134t-125 -51
q-77 0 -121.5 45t-44.5 127t51 132t123 50q76 0 122.5 -42t46.5 -127zM664 152q0 40 -11 56t-34 16q-20 0 -33.5 -19t-13.5 -54q0 -73 45 -73q20 0 33.5 19.5t13.5 54.5z" />
    <glyph glyph-name="ampersand" unicode="&#x26;" horiz-adv-x="798" 
d="M765 90l-101 -116q-92 64 -134 96q-112 -83 -256 -83q-116 0 -174 57.5t-58 144.5q0 107 118 202q-80 95 -80 175q0 74 57 125t156 51q91 0 140.5 -42t49.5 -114q0 -100 -116 -192q78 -73 156 -131v-1q57 93 54 204h152q2 -162 -90 -287zM333 576q0 22 -13 36.5t-37 14.5
q-23 0 -37.5 -15t-14.5 -38q0 -40 46 -94q56 49 56 96zM417 154q-94 75 -166 145q-51 -47 -51 -92q0 -36 27 -62.5t72 -26.5q65 0 118 36z" />
    <glyph glyph-name="quoteright" unicode="&#x2019;" horiz-adv-x="282" 
d="M95 392l-62 56q52 55 60 92t-20 68q-20 27 -20.5 59t25 57.5t64.5 25.5q57 0 83 -54q33 -71 -17 -168q-37 -71 -113 -136z" />
    <glyph glyph-name="parenleft" unicode="(" horiz-adv-x="308" 
d="M321 -193h-147q-134 218 -134 478t135 481h143q-127 -213 -127 -476q0 -266 130 -483z" />
    <glyph glyph-name="parenright" unicode=")" horiz-adv-x="308" 
d="M268 288q0 -263 -134 -481h-145q129 213 129 480q0 263 -128 479h146q132 -219 132 -478z" />
    <glyph glyph-name="asterisk" unicode="*" horiz-adv-x="391" 
d="M364 529l-54 -92l-81 69l19 -105h-107l19 105l-82 -68l-52 91l101 36l-101 37l53 91l82 -69l-20 106h107l-19 -106l82 69l53 -91l-101 -37z" />
    <glyph glyph-name="plus" unicode="+" horiz-adv-x="568" 
d="M545 194h-189v-194h-145v194h-189v128h189v192h145v-192h189v-128z" />
    <glyph glyph-name="comma" unicode="," horiz-adv-x="277" 
d="M91 -185l-62 55q51 56 59.5 93t-20.5 67q-19 27 -19.5 59t24.5 57.5t65 25.5q57 0 82 -54q34 -72 -17 -169q-36 -70 -112 -134z" />
    <glyph glyph-name="hyphen" unicode="-" horiz-adv-x="337" 
d="M294 195h-252v122h252v-122z" />
    <glyph glyph-name="period" unicode="." horiz-adv-x="277" 
d="M138 176q39 0 67 -28t28 -67q0 -38 -28 -66t-67 -28q-38 0 -66 28t-28 66q0 39 28 67t66 28z" />
    <glyph glyph-name="slash" unicode="/" horiz-adv-x="428" 
d="M422 675l-257 -675h-153l258 675h152z" />
    <glyph glyph-name="zero" unicode="0" horiz-adv-x="605" 
d="M570 261q0 -125 -80.5 -199.5t-196.5 -74.5q-114 0 -186 62.5t-72 199.5q0 126 80.5 201t193.5 75q72 0 125 -23t81.5 -62.5t41.5 -84t13 -94.5zM418 260q0 62 -29.5 98.5t-84.5 36.5q-50 0 -83.5 -36.5t-33.5 -99.5q0 -64 29 -101t87 -37q49 0 82 37t33 102z" />
    <glyph glyph-name="one" unicode="1" horiz-adv-x="345" 
d="M282 0h-155v369l-95 -39l-23 126l157 58h116v-514z" />
    <glyph glyph-name="two" unicode="2" horiz-adv-x="481" 
d="M443 0h-404v124l77 60q86 66 113 93.5t27 56.5q0 59 -75 59q-60 0 -114 -34l-22 129q85 36 173 36q100 0 154 -43t54 -118q0 -98 -125 -192l-53 -39v-2q58 4 195 4v-134z" />
    <glyph glyph-name="three" unicode="3" horiz-adv-x="456" 
d="M422 49q0 -99 -77 -166t-213 -67q-56 0 -104 14l13 131q45 -15 94 -15q58 0 90 24t32 65q0 51 -52.5 70t-142.5 8v122q185 -1 185 92q0 31 -22.5 48.5t-63.5 17.5q-59 0 -109 -28l-15 126q73 29 156 29q104 0 159 -46t55 -117q0 -50 -28 -90t-75 -62v-1q57 -14 87.5 -56
t30.5 -99z" />
    <glyph glyph-name="four" unicode="4" horiz-adv-x="561" 
d="M546 0h-96v-178h-150v178h-259l-24 123l242 394h191v-380h96v-137zM303 137v233h-1l-139 -235q33 2 140 2z" />
    <glyph glyph-name="five" unicode="5" horiz-adv-x="461" 
d="M426 67q0 -110 -87 -180.5t-220 -70.5q-40 0 -84 7l14 135q37 -7 77 -7q68 0 103 26.5t35 69.5t-37.5 67.5t-109.5 24.5q-37 0 -62 -4v379h352v-150l-209 2v-104q105 0 166.5 -52.5t61.5 -142.5z" />
    <glyph glyph-name="six" unicode="6" horiz-adv-x="581" 
d="M549 233q0 -108 -73.5 -177t-190.5 -69q-111 0 -177 75t-66 214q0 197 101.5 310.5t275.5 113.5q27 0 65 -2v-135q-48 6 -74 6q-151 0 -197 -139q-1 -2 -8 -27l1 -1q46 46 133 46q97 0 153.5 -58t56.5 -157zM388 218q0 48 -22.5 73.5t-63.5 25.5q-42 0 -66 -26.5
t-24 -64.5q0 -48 22.5 -77.5t64.5 -29.5q43 0 66 27.5t23 71.5z" />
    <glyph glyph-name="seven" unicode="7" horiz-adv-x="458" 
d="M438 386q-113 -267 -170 -564h-170q66 305 167 545q-123 -3 -245 -3v150h418v-128z" />
    <glyph glyph-name="eight" unicode="8" horiz-adv-x="560" 
d="M525 193q0 -97 -73 -151.5t-184 -54.5q-108 0 -170.5 50.5t-62.5 135.5q0 59 31.5 99.5t81.5 73.5l-1 1q-105 62 -105 164q0 89 68 143t173 54q106 0 168 -46.5t62 -126.5q0 -52 -26.5 -91t-80.5 -76q119 -69 119 -175zM356 521q0 26 -20 44t-57 18q-36 0 -56.5 -18
t-20.5 -47q0 -26 20.5 -46.5t62.5 -43.5h1q36 24 53 45.5t17 47.5zM363 185q0 31 -24 54t-69 46h-1q-73 -46 -73 -96q0 -33 23 -53t61 -20q37 0 60 19t23 50z" />
    <glyph glyph-name="nine" unicode="9" horiz-adv-x="581" 
d="M538 229q0 -191 -96 -302t-289 -111q-35 0 -70 7v138q34 -12 75 -12q157 0 197 126q5 21 8 32h-1q-46 -46 -128 -46q-93 0 -148 58t-55 153q0 110 72.5 180t185.5 70q114 0 181.5 -73t67.5 -220zM366 291q0 44 -22 71.5t-64 27.5q-40 0 -64.5 -27.5t-24.5 -68.5
q0 -100 87 -100q41 0 64.5 27.5t23.5 69.5z" />
    <glyph glyph-name="colon" unicode=":" horiz-adv-x="286" 
d="M143 453q39 0 67 -28t28 -67t-28 -67t-67 -28t-66.5 28t-27.5 67t27.5 67t66.5 28zM143 176q39 0 67 -28t28 -67q0 -38 -28 -66t-67 -28t-66.5 28t-27.5 66q0 39 27.5 67t66.5 28z" />
    <glyph glyph-name="semicolon" unicode=";" horiz-adv-x="286" 
d="M238 358q0 -39 -28 -67t-67 -28t-66.5 28t-27.5 67t27.5 67t66.5 28t67 -28t28 -67zM143 172q57 0 82 -54q34 -72 -17 -169q-36 -70 -112 -134l-62 55q51 56 59.5 93t-20.5 67q-19 27 -19.5 59t24.5 57.5t65 25.5z" />
    <glyph glyph-name="less" unicode="&#x3c;" horiz-adv-x="507" 
d="M40 249l320 303l100 -101l-223 -201l224 -200l-100 -103z" />
    <glyph glyph-name="equal" unicode="=" horiz-adv-x="562" 
d="M505 293h-448v122h448v-122zM505 89h-448v122h448v-122z" />
    <glyph glyph-name="greater" unicode="&#x3e;" horiz-adv-x="507" 
d="M468 251l-320 -303l-100 101l223 201l-224 200l100 103z" />
    <glyph glyph-name="question" unicode="?" horiz-adv-x="437" 
d="M399 512q0 -38 -14 -70.5t-34.5 -52l-43 -41.5l-39 -39.5t-23 -46t4.5 -61.5h-149q-18 57 -11.5 93t29.5 65.5t48 48.5t45 42t20 46q0 42 -50.5 67t-139.5 26l19 139q168 -5 253 -67t85 -149zM269 74q0 -36 -26 -61t-64 -25t-64 25t-26 61q0 37 26 62t64 25t64 -25
t26 -62z" />
    <glyph glyph-name="at" unicode="@" horiz-adv-x="797" 
d="M756 408q0 -120 -61 -182.5t-164 -62.5q-44 0 -68.5 21t-24.5 55h-4q-18 -32 -50 -54t-71 -22q-45 0 -70 32.5t-25 97.5q0 101 55 165t162 64q63 0 112 -20l-29 -159q-8 -43 -1.5 -60t29.5 -17q83 0 83 135q0 77 -50 127t-153 50q-111 0 -186.5 -75t-75.5 -193
q0 -217 236 -217q85 0 163 27v-109q-64 -29 -181 -29q-169 0 -258.5 84.5t-89.5 230.5q0 173 114.5 282.5t284.5 109.5q148 0 235.5 -80t87.5 -201zM431 430q-11 5 -30 5q-34 0 -55.5 -40t-21.5 -83q0 -47 22 -47q23 0 45 34.5t34 99.5z" />
    <glyph glyph-name="A" unicode="A" horiz-adv-x="633" 
d="M638 0h-171l-42 125h-233l-41 -125h-155l228 675h177zM386 248l-47 135q-23 68 -31 112h-2q-11 -59 -32 -120l-44 -127h156z" />
    <glyph glyph-name="B" unicode="B" horiz-adv-x="586" 
d="M551 211q0 -90 -69 -151.5t-209 -61.5q-13 0 -85 1t-128 1v674q103 5 246 5q112 0 173 -43t61 -127q0 -47 -27 -86.5t-71 -59.5v-3q50 -13 79.5 -55t29.5 -94zM375 485q0 69 -94 69q-27 0 -65 -2v-148q13 -1 46 -1q113 0 113 82zM384 209q0 39 -30.5 59t-85.5 20
q-40 0 -52 -1v-159q19 -3 60 -3q51 0 79.5 22.5t28.5 61.5z" />
    <glyph glyph-name="C" unicode="C" horiz-adv-x="555" 
d="M516 18q-78 -27 -167 -27t-153.5 28t-98.5 76.5t-49 102t-15 115.5q0 168 89 267.5t253 99.5q73 0 138 -17l-18 -141q-62 18 -123 18q-80 0 -124 -54t-44 -147q0 -206 176 -206q67 0 118 24z" />
    <glyph glyph-name="D" unicode="D" horiz-adv-x="660" 
d="M628 351q0 -170 -100 -263t-268 -93q-76 0 -200 6v672q106 6 230 6q338 0 338 -328zM461 339q0 102 -40.5 155.5t-140.5 53.5q-47 0 -64 -2v-413q26 -4 58 -4q84 0 135.5 53t51.5 157z" />
    <glyph glyph-name="E" unicode="E" horiz-adv-x="487" 
d="M440 0h-380v675h380v-131h-224v-134h212v-127h-212v-149h224v-134z" />
    <glyph glyph-name="F" unicode="F" horiz-adv-x="463" 
d="M432 542h-216v-144h204v-128h-204v-270h-156v675h372v-133z" />
    <glyph glyph-name="G" unicode="G" horiz-adv-x="670" 
d="M613 656l-24 -144q-86 34 -179 34q-96 0 -153 -57t-57 -156q0 -95 49.5 -149t142.5 -54q37 0 64 9v221h156v-327q-108 -44 -237 -44q-163 0 -253 88.5t-90 243.5q0 163 104.5 263.5t282.5 100.5q97 0 194 -29z" />
    <glyph glyph-name="H" unicode="H" horiz-adv-x="679" 
d="M619 0h-156v281h-247v-281h-156v675h156v-259h247v259h156v-675z" />
    <glyph glyph-name="I" unicode="I" horiz-adv-x="276" 
d="M216 0h-156v675h156v-675z" />
    <glyph glyph-name="J" unicode="J" horiz-adv-x="339" 
d="M280 197q0 -92 -44.5 -149.5t-146.5 -57.5q-49 0 -89 8v132q25 -9 57 -9q34 0 51 18t17 63v473h155v-478z" />
    <glyph glyph-name="K" unicode="K" horiz-adv-x="605" 
d="M601 0h-202l-183 317v-317h-156v675h156v-298l185 298h189l-223 -325z" />
    <glyph glyph-name="L" unicode="L" horiz-adv-x="430" 
d="M420 0h-360v675h156v-537h204v-138z" />
    <glyph glyph-name="M" unicode="M" horiz-adv-x="876" 
d="M857 0h-164l-43 278q-12 73 -20 157h-2q-16 -82 -39 -159l-83 -276h-150l-80 252q-32 103 -44 183h-1q-4 -46 -20 -171l-34 -264h-157l108 675h179l94 -296q20 -63 36 -147h2q11 62 38 148l96 295h176z" />
    <glyph glyph-name="N" unicode="N" horiz-adv-x="693" 
d="M633 0h-199l-159 291q-35 64 -70 148q5 -83 5 -182v-257h-150v675h200l148 -267q39 -73 82 -166q-7 81 -7 211v222h150v-675z" />
    <glyph glyph-name="O" unicode="O" horiz-adv-x="702" 
d="M674 348q0 -163 -95.5 -262t-239.5 -99q-154 0 -232.5 90t-78.5 252q0 161 96.5 260t238.5 99q141 0 226 -85t85 -255zM509 338q0 102 -40.5 155t-117.5 53q-66 0 -112 -52t-46 -152q0 -101 38.5 -156.5t116.5 -55.5q64 0 112.5 51.5t48.5 156.5z" />
    <glyph glyph-name="P" unicode="P" horiz-adv-x="536" 
d="M518 463q0 -103 -71 -171.5t-195 -68.5q-22 0 -36 1v-224h-156v675q97 5 192 5q129 0 197.5 -56.5t68.5 -160.5zM357 456q0 97 -108 97q-22 0 -33 -1v-198q20 -2 27 -2q50 1 82 28.5t32 75.5z" />
    <glyph glyph-name="Q" unicode="Q" horiz-adv-x="702" 
d="M674 348q0 -163 -95.5 -262t-239.5 -99q-154 0 -232.5 90t-78.5 252q0 161 96.5 260t238.5 99q141 0 226 -85t85 -255zM700 -215q-107 -14 -156.5 -3.5t-119 22.5t-134.5 4v136q62 7 117.5 2t91 -15t89.5 -14.5t112 4.5v-136zM509 338q0 102 -40.5 155t-117.5 53
q-66 0 -112 -52t-46 -152q0 -101 38.5 -156.5t116.5 -55.5q64 0 112.5 51.5t48.5 156.5z" />
    <glyph glyph-name="R" unicode="R" horiz-adv-x="575" 
d="M572 0h-190l-160 264h-6v-264h-156v675q71 5 211 5q255 0 255 -200q0 -68 -40.5 -119t-108.5 -68l52 -76zM363 467q0 85 -104 85q-25 0 -43 -2v-173q16 -2 39 -2q50 0 79 24.5t29 67.5z" />
    <glyph glyph-name="S" unicode="S" horiz-adv-x="502" 
d="M469 216q0 -100 -75 -164t-202 -64q-74 0 -138 15l8 144q68 -25 142 -25q44 0 71 18.5t27 53.5q0 27 -20 45.5t-50 28.5t-64.5 25.5t-64.5 34.5t-50 57t-20 91q0 96 71.5 153.5t196.5 57.5q60 0 123 -12l-9 -135q-62 18 -120 18q-47 0 -71 -18t-24 -48q0 -28 27.5 -48
t67 -34.5t79.5 -34.5t67.5 -60t27.5 -99z" />
    <glyph glyph-name="T" unicode="T" horiz-adv-x="507" 
d="M493 542h-162v-542h-155v542h-162v133h479v-133z" />
    <glyph glyph-name="U" unicode="U" horiz-adv-x="673" 
d="M613 265q0 -140 -74.5 -209t-211.5 -69q-78 0 -132 19.5t-82.5 56t-40.5 78.5t-12 97v437h156v-428q0 -64 26.5 -96.5t94.5 -32.5q66 0 94 31.5t28 106.5v419h154v-410z" />
    <glyph glyph-name="V" unicode="V" horiz-adv-x="635" 
d="M637 675l-228 -675h-182l-229 675h168l119 -369q23 -70 37 -126h1q17 72 37 135l118 360h159z" />
    <glyph glyph-name="W" unicode="W" horiz-adv-x="951" 
d="M933 675l-169 -675h-189l-80 318q-15 62 -25 154h-1q-8 -80 -25 -149l-81 -323h-178l-167 675h165l79 -329q16 -69 22 -141h1q13 89 26 137l88 333h161l88 -327q17 -63 27 -139h1q11 82 25 142l76 324h156z" />
    <glyph glyph-name="X" unicode="X" horiz-adv-x="648" 
d="M642 0h-196l-128 228l-128 -228h-184l211 344l-199 331h180l123 -219l121 219h177l-195 -332z" />
    <glyph glyph-name="Y" unicode="Y" horiz-adv-x="578" 
d="M579 675l-214 -439v-236h-156v235l-211 440h170l77 -172q27 -60 43 -108h2q13 39 52 122l73 158h164z" />
    <glyph glyph-name="Z" unicode="Z" horiz-adv-x="536" 
d="M492 0h-448v122l217 363q15 25 36 52q-36 -2 -106 -2h-140v140h437v-127l-229 -368q-7 -12 -26 -38q13 2 131 2h128v-144z" />
    <glyph glyph-name="bracketleft" unicode="[" horiz-adv-x="331" 
d="M297 -208h-235v989h235v-122h-92v-744h92v-123z" />
    <glyph glyph-name="backslash" unicode="\" horiz-adv-x="417" 
d="M415 0h-147l-264 675h146z" />
    <glyph glyph-name="bracketright" unicode="]" horiz-adv-x="331" 
d="M270 -208h-235v123h91v744h-91v122h235v-989z" />
    <glyph glyph-name="asciicircum" unicode="^" horiz-adv-x="535" 
d="M490 387l-108 -54l-122 235l-117 -235l-101 52l163 290h115z" />
    <glyph glyph-name="underscore" unicode="_" horiz-adv-x="500" 
d="M500 -252h-500v123h500v-123z" />
    <glyph glyph-name="quoteleft" unicode="&#x2018;" horiz-adv-x="282" 
d="M186 759l62 -55q-51 -55 -59.5 -92t20.5 -68q19 -27 19.5 -59t-24.5 -57.5t-65 -25.5q-57 0 -82 54q-34 72 17 169q37 70 112 134z" />
    <glyph glyph-name="a" unicode="a" horiz-adv-x="526" 
d="M469 0h-143q0 50 4 75h-1q-18 -39 -59 -62.5t-93 -23.5q-70 0 -107.5 37t-37.5 99q0 91 78 138.5t202 47.5v19q0 32 -20.5 46.5t-68.5 14.5q-78 0 -145 -36l-12 126q92 29 180 29q123 0 171 -43.5t48 -134.5v-214q0 -66 4 -118zM312 200v14q-136 0 -136 -66
q0 -19 13.5 -31t36.5 -12q37 0 61.5 28.5t24.5 66.5z" />
    <glyph glyph-name="b" unicode="b" horiz-adv-x="559" 
d="M528 275q0 -127 -72.5 -206.5t-202.5 -79.5q-102 0 -194 25v716h152v-196q0 -54 -7 -99l1 -1q18 34 55 54t86 20q88 0 135 -61.5t47 -171.5zM367 260q0 121 -68 121q-39 0 -63.5 -39.5t-24.5 -99.5v-125q21 -6 53 -6q103 0 103 149z" />
    <glyph glyph-name="c" unicode="c" horiz-adv-x="418" 
d="M388 11q-55 -21 -130 -21q-228 0 -228 243q0 120 66 197.5t196 77.5q46 0 96 -13l-16 -132q-44 14 -78 14q-52 0 -78.5 -34.5t-26.5 -97.5q0 -58 26 -90.5t77 -32.5q48 0 84 18z" />
    <glyph glyph-name="d" unicode="d" horiz-adv-x="558" 
d="M499 0h-140q0 40 5 71h-2q-47 -83 -151 -83q-88 0 -134.5 62t-46.5 171q0 126 71.5 206t195.5 80q26 0 50 -3v226h152v-730zM347 258v122q-26 6 -52 6q-104 0 -104 -149q0 -122 69 -122q38 0 62.5 40.5t24.5 102.5z" />
    <glyph glyph-name="e" unicode="e" 
d="M485 278q0 -27 -5 -67h-296q2 -104 123 -104q78 0 146 31l14 -115q-83 -34 -184 -34q-253 0 -253 254q0 118 63 192t176 74q108 0 162 -64t54 -167zM335 312q1 41 -17.5 63.5t-52.5 22.5q-33 0 -55 -24t-25 -62h150z" />
    <glyph glyph-name="f" unicode="f" horiz-adv-x="357" 
d="M369 731l-10 -124q-27 9 -55 9q-35 0 -51 -18t-16 -57v-44h102v-117h-102v-380h-152v380h-76v117h76v43q0 101 48.5 150t155.5 49q45 0 80 -8z" />
    <glyph glyph-name="g" unicode="g" horiz-adv-x="555" 
d="M525 -45q0 -85 -76.5 -144.5t-201.5 -59.5q-103 0 -159.5 37t-56.5 110q0 34 21 67t50 48q-48 25 -48 77q0 29 17 54.5t43 34.5q-73 37 -73 136q0 83 60 138.5t169 55.5q45 0 93 -12h167v-120h-54q13 -19 13 -47q0 -83 -57 -130.5t-158 -47.5q-18 0 -40 2q-18 -7 -18 -25
q0 -15 14.5 -20.5t56.5 -5.5h68q82 0 126 -37t44 -111zM344 326q0 34 -21 53.5t-58 19.5q-36 0 -57.5 -20t-21.5 -52q0 -34 21 -53.5t60 -19.5q35 0 56 19.5t21 52.5zM376 -66q0 51 -64 51h-79q-14 0 -19 1q-33 -22 -33 -58q0 -29 23 -45.5t65 -16.5q51 0 79 19t28 49z" />
    <glyph glyph-name="h" unicode="h" horiz-adv-x="568" 
d="M508 0h-152v316q0 64 -46 64q-40 0 -69.5 -42t-29.5 -98v-240h-152v730h152v-199q0 -61 -8 -102h1q49 79 157 79q147 0 147 -157v-351z" />
    <glyph glyph-name="i" unicode="i" horiz-adv-x="271" 
d="M229 639q0 -37 -27.5 -63.5t-66.5 -26.5q-38 0 -65.5 26.5t-27.5 63.5t27.5 63.5t65.5 26.5q39 0 66.5 -26.5t27.5 -63.5zM211 0h-152v497h152v-497z" />
    <glyph glyph-name="j" unicode="j" horiz-adv-x="273" 
d="M231 639q0 -37 -27.5 -63.5t-65.5 -26.5q-39 0 -66.5 26.5t-27.5 63.5t27.5 63.5t66.5 26.5q38 0 65.5 -26.5t27.5 -63.5zM214 -25q0 -107 -48 -163t-159 -56q-37 0 -72 10l9 129q28 -11 57 -11q33 0 47 17t14 57v539h152v-522z" />
    <glyph glyph-name="k" unicode="k" horiz-adv-x="542" 
d="M536 0h-190l-135 239v-239h-152v730h152v-433l126 200h187l-164 -228z" />
    <glyph glyph-name="l" unicode="l" horiz-adv-x="271" 
d="M211 0h-152v730h152v-730z" />
    <glyph glyph-name="m" unicode="m" horiz-adv-x="858" 
d="M799 0h-153v312q0 68 -45 68q-36 0 -66.5 -41t-30.5 -100v-239h-150v312q0 68 -45 68q-38 0 -68 -41.5t-30 -99.5v-239h-152v497h143q0 -39 -6 -79h1q24 42 65.5 66t93.5 24q109 0 136 -90q21 39 62 64.5t95 25.5q150 0 150 -167v-341z" />
    <glyph glyph-name="n" unicode="n" horiz-adv-x="568" 
d="M508 0h-152v316q0 64 -46 64q-40 0 -69.5 -42t-29.5 -97v-241h-152v497h142q0 -49 -6 -78h1q54 89 165 89q147 0 147 -157v-351z" />
    <glyph glyph-name="o" unicode="o" horiz-adv-x="558" 
d="M529 259q0 -120 -74 -195t-188 -75q-113 0 -176 60t-63 188q0 121 74 196t189 75t176.5 -63.5t61.5 -185.5zM371 250q0 128 -90 128q-40 0 -67.5 -31.5t-27.5 -92.5q0 -133 92 -133q42 0 67.5 34t25.5 95z" />
    <glyph glyph-name="p" unicode="p" horiz-adv-x="559" 
d="M528 276q0 -132 -67.5 -208t-198.5 -76q-30 0 -51 4v-233h-152v734h140q0 -38 -4 -71h2q44 82 150 82q87 0 134 -61.5t47 -170.5zM367 260q0 122 -68 122q-39 0 -63.5 -40t-24.5 -103v-122q24 -6 53 -6q103 0 103 149z" />
    <glyph glyph-name="q" unicode="q" horiz-adv-x="559" 
d="M500 -237h-153v203q0 55 7 101l-2 1q-19 -38 -54.5 -59t-81.5 -21q-90 0 -137.5 59t-47.5 173q0 127 72 207.5t205 80.5q92 0 192 -16v-729zM347 261v120q-25 5 -52 5q-104 0 -104 -149q0 -122 68 -122q39 0 63.5 40.5t24.5 105.5z" />
    <glyph glyph-name="r" unicode="r" horiz-adv-x="356" 
d="M345 509l-7 -151q-63 14 -95 -23.5t-32 -129.5v-205h-152v497h142q0 -45 -7 -88h2q47 107 149 100z" />
    <glyph glyph-name="s" unicode="s" horiz-adv-x="411" 
d="M379 157q0 -77 -62 -122.5t-167 -45.5q-39 0 -103 8l3 124q53 -16 104 -16q29 0 46 11t17 28q0 20 -19 32.5t-45.5 22t-53.5 23.5t-46 44.5t-19 76.5q0 71 57.5 118.5t162.5 47.5q31 0 87 -8l-3 -119q-39 12 -88 12q-57 0 -57 -38q0 -17 19 -29t46.5 -23.5t55 -26.5
t46.5 -46t19 -74z" />
    <glyph glyph-name="t" unicode="t" horiz-adv-x="377" 
d="M343 3q-58 -14 -108 -14q-86 0 -119 34.5t-33 125.5v231h-75v117h75v147l152 41v-188h108v-117h-107v-196q0 -38 11 -53t40 -15q24 0 56 8v-121z" />
    <glyph glyph-name="u" unicode="u" horiz-adv-x="566" 
d="M508 0h-142q0 49 6 78h-2q-52 -89 -164 -89q-78 0 -113 43t-35 114v351h153v-316q0 -64 46 -64q40 0 69 42t29 97v241h153v-497z" />
    <glyph glyph-name="v" unicode="v" 
d="M520 497l-183 -497h-155l-183 497h167l61 -176q17 -47 36 -121h2q14 65 32 116l61 181h162z" />
    <glyph glyph-name="w" unicode="w" horiz-adv-x="798" 
d="M793 497l-155 -497h-162l-55 173q-11 36 -29 119h-1q-9 -45 -32 -125l-50 -167h-153l-151 497h166l38 -138q25 -89 41 -162h2q12 72 37 155l43 145h141l44 -137q28 -91 42 -163h2q19 100 35 155l41 145h156z" />
    <glyph glyph-name="x" unicode="x" horiz-adv-x="534" 
d="M530 0h-190l-77 152l-77 -152h-181l164 252l-154 245h181l78 -149l79 149h168l-145 -245z" />
    <glyph glyph-name="y" unicode="y" horiz-adv-x="516" 
d="M517 497l-203 -540q-43 -116 -93 -158.5t-138 -42.5q-34 0 -74 9l9 130q36 -12 71 -12q28 0 47 16t33 58l14 43l-180 497h168l50 -145q19 -53 40 -145h1q18 75 47 160l45 130h163z" />
    <glyph glyph-name="z" unicode="z" horiz-adv-x="452" 
d="M407 0h-363v109l174 253q-28 -2 -90 -2h-78v137h354v-109l-169 -249q16 1 97 1h75v-140z" />
    <glyph glyph-name="braceleft" unicode="{" horiz-adv-x="376" 
d="M344 -208h-23q-106 0 -152.5 56t-46.5 185v108q0 62 -23.5 86.5t-72.5 26.5v114q49 2 72.5 24t23.5 84v66q0 125 46.5 182t152.5 57h23v-122q-48 0 -64 -22t-16 -94v-66q0 -151 -92 -165v-2q92 -14 92 -170v-107q0 -73 16 -95.5t64 -22.5v-123z" />
    <glyph glyph-name="bar" unicode="|" horiz-adv-x="274" 
d="M195 -250h-121v1000h121v-1000z" />
    <glyph glyph-name="braceright" unicode="}" horiz-adv-x="374" 
d="M352 254q-49 -2 -73 -26.5t-24 -86.5v-108q0 -129 -46.5 -185t-151.5 -56h-24v123q48 0 64 22.5t16 95.5v107q0 156 92 170v2q-92 12 -92 164v67q0 72 -16 94t-64 22v122h24q105 0 151.5 -57t46.5 -182v-65q0 -63 23.5 -85t73.5 -24v-114z" />
    <glyph glyph-name="asciitilde" unicode="~" horiz-adv-x="568" 
d="M534 252q-56 -70 -154 -70q-44 0 -109.5 25.5t-97.5 25.5q-56 0 -96 -40l-45 114q65 61 153 61q48 0 108 -25.5t89 -25.5q52 0 106 46z" />
    <glyph glyph-name="exclamdown" unicode="&#xa1;" horiz-adv-x="306" 
d="M237 422q0 -36 -26 -61.5t-64 -25.5q-37 0 -63 25.5t-26 61.5q0 37 25.5 62t63.5 25t64 -25t26 -62zM229 -226h-166l16 522h133z" />
    <glyph glyph-name="cent" unicode="&#xa2;" horiz-adv-x="452" 
d="M407 49q-36 -13 -79 -18v-99h-114v100q-87 12 -131.5 74.5t-44.5 159.5q0 94 46.5 161.5t129.5 86.5v93h114v-85q44 -4 78 -15l-14 -127q-40 19 -85 19q-51 0 -81 -32.5t-30 -91.5q0 -116 107 -116q48 0 93 21z" />
    <glyph glyph-name="sterling" unicode="&#xa3;" horiz-adv-x="485" 
d="M433 0h-383v118q48 23 71 49.5t23 71.5q0 14 -6 64h-83v117h71q-10 93 -10 94q0 99 50 146.5t151 47.5q45 0 90 -8l-9 -125q-31 7 -61 7q-66 0 -66 -71q0 -23 8 -91h115v-117h-103q3 -23 3 -44q0 -75 -57 -129q63 3 69 3h127v-133z" />
    <glyph glyph-name="fraction" unicode="&#x2044;" horiz-adv-x="447" 
d="M515 711l-416 -844l-128 56l417 844z" />
    <glyph glyph-name="yen" unicode="&#xa5;" horiz-adv-x="607" 
d="M596 675l-180 -354h112v-94h-148v-51h148v-96h-148v-80h-154v80h-149v96h149v51h-149v94h112l-177 354h169l77 -158q21 -43 45 -109h2q14 46 54 122l73 145h164z" />
    <glyph glyph-name="florin" unicode="&#x192;" horiz-adv-x="425" 
d="M273 317l-23 -267q-13 -150 -60.5 -207.5t-154.5 -57.5q-28 0 -64 6l9 128q21 -6 48 -6q34 0 48 24.5t19 81.5l25 298h-71v118h80l7 75q11 121 60 176.5t152 55.5q28 0 64 -6l-9 -125q-23 5 -48 5q-32 0 -47.5 -21t-19.5 -75l-7 -85h92v-118h-100z" />
    <glyph glyph-name="section" unicode="&#xa7;" horiz-adv-x="521" 
d="M469 254q0 -43 -20.5 -83t-51.5 -63q35 -42 35 -104q0 -70 -61.5 -122.5t-188.5 -52.5q-43 0 -84 9l9 130q35 -11 77 -11t62.5 14.5t20.5 37.5q0 22 -22 46t-54 48.5t-64 53.5t-54 73t-22 95q0 93 71 147q-33 40 -33 100q0 74 58.5 125t179.5 51q47 0 76 -7l-7 -128
q-31 10 -71 10q-72 0 -72 -48q0 -20 22 -44t54 -50t64 -56.5t54 -75t22 -95.5zM333 233q0 21 -11 41.5t-22 33t-43.5 42.5t-48.5 46q-20 -18 -20 -52q0 -33 25 -64t100 -96q20 17 20 49z" />
    <glyph glyph-name="currency" unicode="&#xa4;" horiz-adv-x="550" 
d="M520 17q-78 -30 -164 -30q-118 0 -184 55.5t-85 171.5h-75v88h68v11q0 38 2 56h-70v88h83q27 112 101 171.5t191 59.5q69 0 128 -16l-26 -128q-48 16 -104 16q-100 0 -130 -103h147v-88h-160q-1 -10 -1 -30q0 -25 1 -37h160v-88h-148q14 -52 45.5 -75.5t85.5 -23.5
q53 0 108 20z" />
    <glyph glyph-name="quotesingle" unicode="'" horiz-adv-x="227" 
d="M189 755l-18 -270h-114l-19 270h151z" />
    <glyph glyph-name="quotedblleft" unicode="&#x201c;" 
d="M486 704q-52 -55 -60.5 -92t20.5 -68q20 -27 20.5 -59t-25 -57.5t-64.5 -25.5q-57 0 -83 54q-33 71 18 169q37 70 112 134zM248 704q-51 -55 -59.5 -92t20.5 -68q19 -27 19.5 -59t-24.5 -57.5t-65 -25.5q-57 0 -82 54q-34 72 17 169q37 70 112 134z" />
    <glyph glyph-name="guillemotleft" unicode="&#xab;" horiz-adv-x="550" 
d="M260 403l-81 -153l83 -151l-124 -53l-104 203l107 206zM501 395l-88 -145l90 -143l-120 -55l-115 197l118 200z" />
    <glyph glyph-name="guilsinglleft" unicode="&#x2039;" horiz-adv-x="312" 
d="M263 399l-86 -149l87 -147l-122 -55l-110 201l113 204z" />
    <glyph glyph-name="guilsinglright" unicode="&#x203a;" horiz-adv-x="312" 
d="M280 252l-113 -204l-118 54l86 149l-88 147l123 55z" />
    <glyph glyph-name="fi" unicode="&#xfb01;" horiz-adv-x="599" 
d="M540 0h-153v380h-150v-380h-152v380h-76v117h76v15q0 115 62 172t192 57q75 0 164 -19l-25 -126q-66 19 -123 19q-62 0 -90 -23.5t-28 -72.5v-22h303v-497z" />
    <glyph glyph-name="fl" unicode="&#xfb02;" horiz-adv-x="599" 
d="M540 0h-153v611q-32 5 -59 5q-91 0 -91 -81v-38h93v-117h-93v-380h-152v380h-76v117h76v42q0 93 62 147.5t194 54.5q82 0 199 -19v-722z" />
    <glyph glyph-name="endash" unicode="&#x2013;" horiz-adv-x="500" 
d="M500 222h-500v134h500v-134z" />
    <glyph glyph-name="dagger" unicode="&#x2020;" horiz-adv-x="483" 
d="M448 435h-145l28 -127l-29 -315h-120l-30 315l28 127h-145v117h145l-28 178h179l-28 -178h145v-117z" />
    <glyph glyph-name="daggerdbl" unicode="&#x2021;" horiz-adv-x="483" 
d="M447 166h-142l27 -166h-181l27 166h-143v118h143l-26 83l26 83h-143v117h143l-26 163h179l-26 -163h143v-117h-143l26 -83l-26 -83h142v-118z" />
    <glyph glyph-name="periodcentered" unicode="&#xb7;" horiz-adv-x="292" 
d="M146 381q39 0 67 -28t28 -67t-28 -67t-67 -28t-67 28t-28 67t28 67t67 28z" />
    <glyph glyph-name="paragraph" unicode="&#xb6;" horiz-adv-x="607" 
d="M374 27v648h189v-123h-62v-648h-194v123h67zM295 675v-456q-124 0 -186 64.5t-62 163.5q0 105 69 166.5t179 61.5z" />
    <glyph glyph-name="bullet" unicode="&#x2022;" horiz-adv-x="427" 
d="M212 463q68 0 117 -49t49 -117q0 -69 -49 -118t-117 -49q-69 0 -117.5 49t-48.5 118q0 68 48.5 117t117.5 49z" />
    <glyph glyph-name="quotesinglbase" unicode="&#x201a;" horiz-adv-x="282" 
d="M95 -185l-62 55q52 55 60 92.5t-20 67.5q-20 27 -20.5 59t25 57.5t64.5 25.5q57 0 83 -54q33 -71 -18 -169q-36 -70 -112 -134z" />
    <glyph glyph-name="quotedblbase" unicode="&#x201e;" 
d="M95 -185l-62 55q52 55 60 92.5t-20 67.5q-20 27 -20.5 59t25 57.5t64.5 25.5q57 0 83 -54q33 -71 -18 -169q-36 -70 -112 -134zM332 -185l-62 55q52 56 60.5 93t-20.5 67q-19 27 -19.5 59t24.5 57.5t65 25.5q57 0 82 -54q33 -71 -18 -169q-36 -70 -112 -134z" />
    <glyph glyph-name="quotedblright" unicode="&#x201d;" 
d="M95 392l-62 56q52 55 60 92t-20 68q-20 27 -20.5 59t25 57.5t64.5 25.5q57 0 83 -54q33 -71 -17 -168q-37 -71 -113 -136zM332 392l-62 56q52 55 60.5 92t-20.5 68q-19 27 -19.5 59t24.5 57.5t65 25.5q56 0 82 -54q33 -71 -17 -168q-37 -71 -113 -136z" />
    <glyph glyph-name="guillemotright" unicode="&#xbb;" horiz-adv-x="550" 
d="M290 98l82 153l-83 151l124 53l104 -203l-107 -206zM49 106l89 145l-91 143l121 55l115 -197l-118 -200z" />
    <glyph glyph-name="ellipsis" unicode="&#x2026;" horiz-adv-x="762" 
d="M134 167q37 0 63.5 -26t26.5 -63t-26.5 -63.5t-63.5 -26.5q-38 0 -64 26t-26 64q0 37 26.5 63t63.5 26zM379 167q37 0 63.5 -26t26.5 -63q0 -38 -26.5 -64t-63.5 -26t-63.5 26.5t-26.5 63.5t26.5 63t63.5 26zM625 167q37 0 63.5 -26t26.5 -63t-26.5 -63.5t-63.5 -26.5
t-63.5 26t-26.5 64q0 37 26.5 63t63.5 26z" />
    <glyph glyph-name="perthousand" unicode="&#x2030;" horiz-adv-x="1136" 
d="M358 532q0 -82 -49 -133t-119 -51q-74 0 -116 45t-42 127q0 81 48.5 131t117.5 50q72 0 116 -42t44 -127zM237 526q0 40 -9.5 55.5t-31.5 15.5q-19 0 -30.5 -19t-11.5 -53q0 -73 40 -73q19 0 31 19t12 55zM746 159q0 -83 -49.5 -134t-119.5 -51q-74 0 -115.5 45
t-41.5 127q0 81 48.5 131t117.5 50q71 0 115.5 -42t44.5 -126zM624 152q0 40 -9.5 55.5t-31.5 15.5q-19 0 -30.5 -19t-11.5 -53q0 -73 40 -73q43 0 43 74zM1100 159q0 -83 -48.5 -134t-119.5 -51q-74 0 -115.5 45t-41.5 127q0 81 48.5 131t117.5 50q71 0 115 -42t44 -126z
M979 152q0 40 -9.5 55.5t-30.5 15.5q-43 0 -43 -72q0 -73 41 -73q42 0 42 74zM688 624l-490 -652l-110 79l490 652z" />
    <glyph glyph-name="questiondown" unicode="&#xbf;" horiz-adv-x="437" 
d="M348 422q0 -36 -26 -61.5t-64 -25.5t-64 25.5t-26 61.5q0 37 26 62t64 25t64 -25t26 -62zM395 -93l-19 -138q-168 5 -253 67t-85 148q0 39 14 71t34.5 52l43 42l39 39.5t23 46t-4.5 61.5h148q18 -57 12 -93t-29 -65.5t-48 -48.5t-45 -42.5t-20 -46.5q0 -41 50.5 -66
t139.5 -27z" />
    <glyph glyph-name="grave" unicode="`" horiz-adv-x="377" 
d="M331 643l-50 -89l-206 93l61 106z" />
    <glyph glyph-name="acute" unicode="&#xb4;" horiz-adv-x="396" 
d="M339 647l-205 -92l-49 88l195 109z" />
    <glyph glyph-name="circumflex" unicode="&#x2c6;" horiz-adv-x="422" 
d="M371 652l-43 -90l-118 60l-117 -60l-42 89l159 84z" />
    <glyph glyph-name="tilde" unicode="&#x2dc;" horiz-adv-x="448" 
d="M411 607q-18 -16 -49 -29.5t-58 -13.5q-43 0 -85.5 24.5t-72.5 24.5q-37 0 -69 -32l-27 101q50 45 107 45q39 0 82 -25t73 -25q41 0 72 31z" />
    <glyph glyph-name="macron" unicode="&#xaf;" horiz-adv-x="317" 
d="M258 589h-214v110h214v-110z" />
    <glyph glyph-name="breve" unicode="&#x2d8;" horiz-adv-x="355" 
d="M321 727q0 -72 -36.5 -119t-109.5 -47t-108 47.5t-35 118.5h100q0 -54 44 -54q45 0 45 54h100z" />
    <glyph glyph-name="dotaccent" unicode="&#x2d9;" horiz-adv-x="289" 
d="M235 654q0 -36 -27 -62t-64 -26q-36 0 -63 26t-27 62t27 62t63 26t63.5 -26t27.5 -62z" />
    <glyph glyph-name="dieresis" unicode="&#xa8;" horiz-adv-x="546" 
d="M447 645q0 -33 -23 -56t-56 -23q-32 0 -55.5 23t-23.5 56q0 32 23.5 55.5t55.5 23.5q33 0 56 -23.5t23 -55.5zM238 645q0 -33 -23 -56t-56 -23q-32 0 -55.5 23t-23.5 56q0 32 23.5 55.5t55.5 23.5q33 0 56 -23.5t23 -55.5z" />
    <glyph glyph-name="ring" unicode="&#x2da;" horiz-adv-x="354" 
d="M313 640q0 -55 -39.5 -92t-96.5 -37t-96.5 36.5t-39.5 92.5t39.5 93t96.5 37t96.5 -37t39.5 -93zM227 640q0 21 -14.5 36t-35.5 15t-35.5 -15t-14.5 -36q0 -20 14.5 -35t35.5 -15t35.5 15t14.5 35z" />
    <glyph glyph-name="cedilla" unicode="&#xb8;" horiz-adv-x="400" 
d="M282 -51q72 -138 -105 -202l-72 57q91 57 39 145h138z" />
    <glyph glyph-name="hungarumlaut" unicode="&#x2dd;" horiz-adv-x="511" 
d="M511 663l-200 -109l-57 84l189 125zM274 711l-162 -157l-77 66l148 168z" />
    <glyph glyph-name="ogonek" unicode="&#x2db;" horiz-adv-x="253" 
d="M233 -245q-43 -13 -95 -13q-56 0 -83.5 30.5t-27.5 78.5q0 62 52 145h111q-35 -65 -35 -120q0 -25 17 -33t61 1v-89z" />
    <glyph glyph-name="caron" unicode="&#x2c7;" horiz-adv-x="422" 
d="M369 642l-158 -85l-162 84l44 90l118 -60l117 60z" />
    <glyph glyph-name="emdash" unicode="&#x2014;" horiz-adv-x="1000" 
d="M1000 222h-1000v134h1000v-134z" />
    <glyph glyph-name="AE" unicode="&#xc6;" horiz-adv-x="788" 
d="M741 0h-376v140h-180l-62 -140h-158l318 675h452v-131h-221v-134h213v-127h-213v-149h227v-134zM365 261v283h-2q-35 -91 -60 -143l-67 -140h129z" />
    <glyph glyph-name="ordfeminine" unicode="&#xaa;" horiz-adv-x="406" 
d="M355 313h-112q0 26 4 47h-1q-12 -25 -40.5 -41t-60.5 -16q-55 0 -83 28.5t-28 74.5q0 69 56.5 102t144.5 33v13q0 38 -54 38q-55 0 -112 -27l-12 98q64 23 144 23q82 0 117.5 -33t35.5 -86q0 -35 -0.5 -92t-0.5 -78q0 -26 2 -84zM235 456v10q-89 0 -89 -43q0 -12 8.5 -20
t23.5 -8q26 0 41.5 19t15.5 42z" />
    <glyph glyph-name="Oslash" unicode="&#xd8;" horiz-adv-x="702" 
d="M670 342q0 -158 -94.5 -256.5t-235.5 -98.5q-30 0 -51 4l-33 -97l-112 35l33 95q-149 78 -149 305q0 165 93 262t238 97q22 0 43 -3l32 92l111 -34l-30 -89q155 -75 155 -312zM514 335q0 120 -50 166l-130 -375q18 -3 37 0q61 7 102 59.5t41 149.5zM356 545q-22 1 -49 -5
q-54 -13 -88.5 -64.5t-34.5 -136.5q0 -115 45 -159z" />
    <glyph glyph-name="OE" unicode="&#x152;" horiz-adv-x="812" 
d="M764 0h-273q-29 0 -79.5 -4.5t-80.5 -4.5q-149 0 -226 90.5t-77 247.5q0 159 92.5 256t228.5 97q32 0 73 -3.5t62 -3.5h280v-131h-224v-134h213v-127h-213v-149h224v-134zM392 135v404q-20 4 -45 4q-68 0 -112.5 -55t-44.5 -147q0 -101 39.5 -156t116.5 -55q26 0 46 5z
" />
    <glyph glyph-name="ordmasculine" unicode="&#xba;" horiz-adv-x="430" 
d="M396 499q0 -88 -54.5 -141.5t-137.5 -53.5q-77 0 -124.5 45.5t-47.5 142.5q0 89 54.5 142t135.5 53q174 0 174 -188zM276 497q0 86 -62 86q-26 0 -44 -21.5t-18 -65.5q0 -88 60 -88q64 0 64 89z" />
    <glyph glyph-name="ae" unicode="&#xe6;" horiz-adv-x="796" 
d="M762 278q0 -37 -5 -67h-296q2 -104 123 -104q78 0 147 31l13 -115q-83 -34 -184 -34q-151 0 -209 94l-1 -2q-61 -92 -176 -92q-69 0 -105.5 37t-36.5 99q0 91 78 138.5t202 47.5v19q0 31 -20.5 46t-68.5 15q-78 0 -145 -36l-12 126q92 29 179 29q110 0 163 -50h1
q51 49 138 49q107 0 161 -64t54 -167zM613 312q1 41 -17.5 63.5t-52.5 22.5q-33 0 -55 -23.5t-26 -62.5h151zM312 200v14q-136 0 -136 -66q0 -20 13 -31.5t37 -11.5q37 0 61.5 28.5t24.5 66.5z" />
    <glyph glyph-name="dotlessi" unicode="&#x131;" horiz-adv-x="271" 
d="M212 0h-152v497h152v-497z" />
    <glyph glyph-name="oslash" unicode="&#xf8;" horiz-adv-x="552" 
d="M522 258q0 -121 -72 -196t-185 -75q-19 0 -45 4l-39 -99l-84 26l38 98q-108 59 -108 225q0 123 72 196t186 73q3 0 42 -3l35 92l85 -25l-36 -90q111 -57 111 -226zM382 253q0 62 -25 94l-90 -233q18 -2 29 -1q38 6 62 41.5t24 98.5zM279 385q-8 1 -25 -1
q-37 -7 -61.5 -41t-24.5 -94t24 -90z" />
    <glyph glyph-name="oe" unicode="&#x153;" horiz-adv-x="851" 
d="M817 278q0 -37 -5 -67h-296q2 -104 123 -104q79 0 147 31l13 -115q-83 -34 -184 -34q-124 0 -186 68q-27 -30 -71 -49t-96 -19q-234 0 -234 254q0 120 72 192.5t184 72.5q107 0 163 -60q59 61 154 61q108 0 162 -64t54 -167zM668 312q1 41 -18 63.5t-53 22.5
q-33 0 -55 -24t-25 -62h151zM368 250q0 68 -22 99.5t-72 31.5q-40 0 -68.5 -32t-28.5 -100q0 -67 22 -99.5t73 -32.5q44 0 70 35t26 98z" />
    <glyph glyph-name="germandbls" unicode="&#xdf;" horiz-adv-x="617" 
d="M592 162q0 -79 -59.5 -127t-152.5 -48q-68 0 -111 17l6 123q44 -23 93 -23q65 0 65 44q0 20 -17 36t-41 30t-48.5 31t-41.5 48.5t-17 73.5q0 39 15.5 70t34.5 47t34.5 39.5t15.5 49.5q0 48 -63 48q-44 0 -69 -31.5t-25 -92.5v-497h-152v490q0 127 70.5 188t180.5 61
q98 0 158 -41.5t60 -115.5q0 -42 -16.5 -72.5t-36 -44.5t-36 -34t-16.5 -44q0 -20 17.5 -36.5t42 -31.5t49.5 -33t42.5 -50t17.5 -74z" />
    <glyph glyph-name="Adieresis" unicode="&#xc4;" horiz-adv-x="633" 
d="M638 0h-171l-42 125h-233l-41 -125h-155l228 675h177zM386 248l-47 135q-23 68 -31 112h-2q-11 -59 -32 -120l-44 -127h156zM496 798q0 -33 -23 -56t-56 -23q-32 0 -55.5 23t-23.5 56q0 32 23.5 55.5t55.5 23.5q33 0 56 -23.5t23 -55.5zM287 798q0 -33 -23 -56t-56 -23
q-32 0 -55.5 23t-23.5 56q0 32 23.5 55.5t55.5 23.5q33 0 56 -23.5t23 -55.5z" />
    <glyph glyph-name="Aring" unicode="&#xc5;" horiz-adv-x="633" 
d="M638 0h-171l-42 125h-233l-41 -125h-155l228 675h177zM386 248l-47 135q-23 68 -31 112h-2q-11 -59 -32 -120l-44 -127h156zM450 775q0 -55 -39.5 -92t-96.5 -37t-96.5 36.5t-39.5 92.5t39.5 93t96.5 37t96.5 -37t39.5 -93zM364 775q0 21 -14.5 36t-35.5 15t-35.5 -15
t-14.5 -36q0 -20 14.5 -35t35.5 -15t35.5 15t14.5 35z" />
    <glyph glyph-name="Ccedilla" unicode="&#xc7;" horiz-adv-x="555" 
d="M516 18q-78 -27 -167 -27t-153.5 28t-98.5 76.5t-49 102t-15 115.5q0 168 89 267.5t253 99.5q73 0 138 -17l-18 -141q-62 18 -123 18q-80 0 -124 -54t-44 -147q0 -206 176 -206q67 0 118 24zM393 -51q72 -138 -105 -202l-72 57q91 57 39 145h138z" />
    <glyph glyph-name="Eacute" unicode="&#xc9;" horiz-adv-x="487" 
d="M440 0h-380v675h380v-131h-224v-134h212v-127h-212v-149h224v-134zM400 805l-205 -92l-49 88l195 109z" />
    <glyph glyph-name="Ntilde" unicode="&#xd1;" horiz-adv-x="693" 
d="M633 0h-199l-159 291q-35 64 -70 148q5 -83 5 -182v-257h-150v675h200l148 -267q39 -73 82 -166q-7 81 -7 211v222h150v-675zM521 765q-18 -16 -49 -29.5t-58 -13.5q-43 0 -85.5 24.5t-72.5 24.5q-37 0 -69 -32l-27 101q50 45 107 45q39 0 82 -25t73 -25q41 0 72 31z" />
    <glyph glyph-name="Odieresis" unicode="&#xd6;" horiz-adv-x="702" 
d="M674 348q0 -163 -95.5 -262t-239.5 -99q-154 0 -232.5 90t-78.5 252q0 161 96.5 260t238.5 99q141 0 226 -85t85 -255zM509 338q0 102 -40.5 155t-117.5 53q-66 0 -112 -52t-46 -152q0 -101 38.5 -156.5t116.5 -55.5q64 0 112.5 51.5t48.5 156.5zM547 798q0 -33 -23 -56
t-56 -23q-32 0 -55.5 23t-23.5 56q0 32 23.5 55.5t55.5 23.5q33 0 56 -23.5t23 -55.5zM338 798q0 -33 -23 -56t-56 -23q-32 0 -55.5 23t-23.5 56q0 32 23.5 55.5t55.5 23.5q33 0 56 -23.5t23 -55.5z" />
    <glyph glyph-name="Udieresis" unicode="&#xdc;" horiz-adv-x="673" 
d="M613 265q0 -140 -74.5 -209t-211.5 -69q-78 0 -132 19.5t-82.5 56t-40.5 78.5t-12 97v437h156v-428q0 -64 26.5 -96.5t94.5 -32.5q66 0 94 31.5t28 106.5v419h154v-410zM511 798q0 -33 -23 -56t-56 -23q-32 0 -55.5 23t-23.5 56q0 32 23.5 55.5t55.5 23.5q33 0 56 -23.5
t23 -55.5zM302 798q0 -33 -23 -56t-56 -23q-32 0 -55.5 23t-23.5 56q0 32 23.5 55.5t55.5 23.5q33 0 56 -23.5t23 -55.5z" />
    <glyph glyph-name="aacute" unicode="&#xe1;" horiz-adv-x="526" 
d="M469 0h-143q0 50 4 75h-1q-18 -39 -59 -62.5t-93 -23.5q-70 0 -107.5 37t-37.5 99q0 91 78 138.5t202 47.5v19q0 32 -20.5 46.5t-68.5 14.5q-78 0 -145 -36l-12 126q92 29 180 29q123 0 171 -43.5t48 -134.5v-214q0 -66 4 -118zM312 200v14q-136 0 -136 -66
q0 -19 13.5 -31t36.5 -12q37 0 61.5 28.5t24.5 66.5zM420 647l-205 -92l-49 88l195 109z" />
    <glyph glyph-name="agrave" unicode="&#xe0;" horiz-adv-x="526" 
d="M469 0h-143q0 50 4 75h-1q-18 -39 -59 -62.5t-93 -23.5q-70 0 -107.5 37t-37.5 99q0 91 78 138.5t202 47.5v19q0 32 -20.5 46.5t-68.5 14.5q-78 0 -145 -36l-12 126q92 29 180 29q123 0 171 -43.5t48 -134.5v-214q0 -66 4 -118zM312 200v14q-136 0 -136 -66
q0 -19 13.5 -31t36.5 -12q37 0 61.5 28.5t24.5 66.5zM377 643l-50 -89l-206 93l61 106z" />
    <glyph glyph-name="acircumflex" unicode="&#xe2;" horiz-adv-x="526" 
d="M469 0h-143q0 50 4 75h-1q-18 -39 -59 -62.5t-93 -23.5q-70 0 -107.5 37t-37.5 99q0 91 78 138.5t202 47.5v19q0 32 -20.5 46.5t-68.5 14.5q-78 0 -145 -36l-12 126q92 29 180 29q123 0 171 -43.5t48 -134.5v-214q0 -66 4 -118zM312 200v14q-136 0 -136 -66
q0 -19 13.5 -31t36.5 -12q37 0 61.5 28.5t24.5 66.5zM426 652l-43 -90l-118 60l-117 -60l-42 89l159 84z" />
    <glyph glyph-name="adieresis" unicode="&#xe4;" horiz-adv-x="526" 
d="M469 0h-143q0 50 4 75h-1q-18 -39 -59 -62.5t-93 -23.5q-70 0 -107.5 37t-37.5 99q0 91 78 138.5t202 47.5v19q0 32 -20.5 46.5t-68.5 14.5q-78 0 -145 -36l-12 126q92 29 180 29q123 0 171 -43.5t48 -134.5v-214q0 -66 4 -118zM312 200v14q-136 0 -136 -66
q0 -19 13.5 -31t36.5 -12q37 0 61.5 28.5t24.5 66.5zM447 645q0 -33 -23 -56t-56 -23q-32 0 -55.5 23t-23.5 56q0 32 23.5 55.5t55.5 23.5q33 0 56 -23.5t23 -55.5zM238 645q0 -33 -23 -56t-56 -23q-32 0 -55.5 23t-23.5 56q0 32 23.5 55.5t55.5 23.5q33 0 56 -23.5
t23 -55.5z" />
    <glyph glyph-name="atilde" unicode="&#xe3;" horiz-adv-x="526" 
d="M469 0h-143q0 50 4 75h-1q-18 -39 -59 -62.5t-93 -23.5q-70 0 -107.5 37t-37.5 99q0 91 78 138.5t202 47.5v19q0 32 -20.5 46.5t-68.5 14.5q-78 0 -145 -36l-12 126q92 29 180 29q123 0 171 -43.5t48 -134.5v-214q0 -66 4 -118zM312 200v14q-136 0 -136 -66
q0 -19 13.5 -31t36.5 -12q37 0 61.5 28.5t24.5 66.5zM442 607q-18 -16 -49 -29.5t-58 -13.5q-43 0 -85.5 24.5t-72.5 24.5q-37 0 -69 -32l-27 101q50 45 107 45q39 0 82 -25t73 -25q41 0 72 31z" />
    <glyph glyph-name="aring" unicode="&#xe5;" horiz-adv-x="526" 
d="M469 0h-143q0 50 4 75h-1q-18 -39 -59 -62.5t-93 -23.5q-70 0 -107.5 37t-37.5 99q0 91 78 138.5t202 47.5v19q0 32 -20.5 46.5t-68.5 14.5q-78 0 -145 -36l-12 126q92 29 180 29q123 0 171 -43.5t48 -134.5v-214q0 -66 4 -118zM312 200v14q-136 0 -136 -66
q0 -19 13.5 -31t36.5 -12q37 0 61.5 28.5t24.5 66.5zM397 670q0 -55 -39.5 -92t-96.5 -37t-96.5 36.5t-39.5 92.5t39.5 93t96.5 37t96.5 -37t39.5 -93zM311 670q0 21 -14.5 36t-35.5 15t-35.5 -15t-14.5 -36q0 -20 14.5 -35t35.5 -15t35.5 15t14.5 35z" />
    <glyph glyph-name="ccedilla" unicode="&#xe7;" horiz-adv-x="418" 
d="M388 11q-55 -21 -130 -21q-228 0 -228 243q0 120 66 197.5t196 77.5q46 0 96 -13l-16 -132q-44 14 -78 14q-52 0 -78.5 -34.5t-26.5 -97.5q0 -58 26 -90.5t77 -32.5q48 0 84 18zM306 -51q72 -138 -105 -202l-72 57q91 57 39 145h138z" />
    <glyph glyph-name="eacute" unicode="&#xe9;" 
d="M485 278q0 -27 -5 -67h-296q2 -104 123 -104q78 0 146 31l14 -115q-83 -34 -184 -34q-253 0 -253 254q0 118 63 192t176 74q108 0 162 -64t54 -167zM335 312q1 41 -17.5 63.5t-52.5 22.5q-33 0 -55 -24t-25 -62h150zM428 647l-205 -92l-49 88l195 109z" />
    <glyph glyph-name="egrave" unicode="&#xe8;" 
d="M485 278q0 -27 -5 -67h-296q2 -104 123 -104q78 0 146 31l14 -115q-83 -34 -184 -34q-253 0 -253 254q0 118 63 192t176 74q108 0 162 -64t54 -167zM335 312q1 41 -17.5 63.5t-52.5 22.5q-33 0 -55 -24t-25 -62h150zM379 643l-50 -89l-206 93l61 106z" />
    <glyph glyph-name="ecircumflex" unicode="&#xea;" 
d="M485 278q0 -27 -5 -67h-296q2 -104 123 -104q78 0 146 31l14 -115q-83 -34 -184 -34q-253 0 -253 254q0 118 63 192t176 74q108 0 162 -64t54 -167zM335 312q1 41 -17.5 63.5t-52.5 22.5q-33 0 -55 -24t-25 -62h150zM427 652l-43 -90l-118 60l-117 -60l-42 89l159 84z
" />
    <glyph glyph-name="edieresis" unicode="&#xeb;" 
d="M485 278q0 -27 -5 -67h-296q2 -104 123 -104q78 0 146 31l14 -115q-83 -34 -184 -34q-253 0 -253 254q0 118 63 192t176 74q108 0 162 -64t54 -167zM335 312q1 41 -17.5 63.5t-52.5 22.5q-33 0 -55 -24t-25 -62h150zM453 645q0 -33 -23 -56t-56 -23q-32 0 -55.5 23
t-23.5 56q0 32 23.5 55.5t55.5 23.5q33 0 56 -23.5t23 -55.5zM244 645q0 -33 -23 -56t-56 -23q-32 0 -55.5 23t-23.5 56q0 32 23.5 55.5t55.5 23.5q33 0 56 -23.5t23 -55.5z" />
    <glyph glyph-name="iacute" unicode="&#xed;" horiz-adv-x="271" 
d="M212 0h-152v497h152v-497zM270 647l-205 -92l-49 88l195 109z" />
    <glyph glyph-name="igrave" unicode="&#xec;" horiz-adv-x="271" 
d="M212 0h-152v497h152v-497zM256 643l-50 -89l-206 93l61 106z" />
    <glyph glyph-name="icircumflex" unicode="&#xee;" horiz-adv-x="271" 
d="M212 0h-152v497h152v-497zM296 652l-44 -90l-118 60l-117 -60l-41 89l158 84z" />
    <glyph glyph-name="idieresis" unicode="&#xef;" horiz-adv-x="271" 
d="M212 0h-152v497h152v-497zM321 645q0 -33 -23.5 -56t-55.5 -23q-33 0 -56 23t-23 56q0 32 23 55.5t56 23.5q32 0 55.5 -23.5t23.5 -55.5zM112 645q0 -33 -23.5 -56t-55.5 -23q-33 0 -56 23t-23 56q0 32 23 55.5t56 23.5q32 0 55.5 -23.5t23.5 -55.5z" />
    <glyph glyph-name="ntilde" unicode="&#xf1;" horiz-adv-x="568" 
d="M508 0h-152v316q0 64 -46 64q-40 0 -69.5 -42t-29.5 -97v-241h-152v497h142q0 -49 -6 -78h1q54 89 165 89q147 0 147 -157v-351zM454 607q-18 -16 -49 -29.5t-58 -13.5q-43 0 -85.5 24.5t-72.5 24.5q-37 0 -69 -32l-27 101q50 45 107 45q39 0 82 -25t73 -25q41 0 72 31z
" />
    <glyph glyph-name="oacute" unicode="&#xf3;" horiz-adv-x="558" 
d="M529 259q0 -120 -74 -195t-188 -75q-113 0 -176 60t-63 188q0 121 74 196t189 75t176.5 -63.5t61.5 -185.5zM371 250q0 128 -90 128q-40 0 -67.5 -31.5t-27.5 -92.5q0 -133 92 -133q42 0 67.5 34t25.5 95zM440 647l-205 -92l-49 88l195 109z" />
    <glyph glyph-name="ograve" unicode="&#xf2;" horiz-adv-x="558" 
d="M529 259q0 -120 -74 -195t-188 -75q-113 0 -176 60t-63 188q0 121 74 196t189 75t176.5 -63.5t61.5 -185.5zM371 250q0 128 -90 128q-40 0 -67.5 -31.5t-27.5 -92.5q0 -133 92 -133q42 0 67.5 34t25.5 95zM392 643l-50 -89l-206 93l61 106z" />
    <glyph glyph-name="ocircumflex" unicode="&#xf4;" horiz-adv-x="558" 
d="M529 259q0 -120 -74 -195t-188 -75q-113 0 -176 60t-63 188q0 121 74 196t189 75t176.5 -63.5t61.5 -185.5zM371 250q0 128 -90 128q-40 0 -67.5 -31.5t-27.5 -92.5q0 -133 92 -133q42 0 67.5 34t25.5 95zM446 652l-43 -90l-118 60l-117 -60l-42 89l159 84z" />
    <glyph glyph-name="odieresis" unicode="&#xf6;" horiz-adv-x="558" 
d="M529 259q0 -120 -74 -195t-188 -75q-113 0 -176 60t-63 188q0 121 74 196t189 75t176.5 -63.5t61.5 -185.5zM371 250q0 128 -90 128q-40 0 -67.5 -31.5t-27.5 -92.5q0 -133 92 -133q42 0 67.5 34t25.5 95zM469 645q0 -33 -23 -56t-56 -23q-32 0 -55.5 23t-23.5 56
q0 32 23.5 55.5t55.5 23.5q33 0 56 -23.5t23 -55.5zM260 645q0 -33 -23 -56t-56 -23q-32 0 -55.5 23t-23.5 56q0 32 23.5 55.5t55.5 23.5q33 0 56 -23.5t23 -55.5z" />
    <glyph glyph-name="otilde" unicode="&#xf5;" horiz-adv-x="558" 
d="M529 259q0 -120 -74 -195t-188 -75q-113 0 -176 60t-63 188q0 121 74 196t189 75t176.5 -63.5t61.5 -185.5zM371 250q0 128 -90 128q-40 0 -67.5 -31.5t-27.5 -92.5q0 -133 92 -133q42 0 67.5 34t25.5 95zM467 607q-18 -16 -49 -29.5t-58 -13.5q-43 0 -85.5 24.5
t-72.5 24.5q-37 0 -69 -32l-27 101q50 45 107 45q39 0 82 -25t73 -25q41 0 72 31z" />
    <glyph glyph-name="uacute" unicode="&#xfa;" horiz-adv-x="566" 
d="M508 0h-142q0 49 6 78h-2q-52 -89 -164 -89q-78 0 -113 43t-35 114v351h153v-316q0 -64 46 -64q40 0 69 42t29 97v241h153v-497zM436 647l-205 -92l-49 88l195 109z" />
    <glyph glyph-name="ugrave" unicode="&#xf9;" horiz-adv-x="566" 
d="M508 0h-142q0 49 6 78h-2q-52 -89 -164 -89q-78 0 -113 43t-35 114v351h153v-316q0 -64 46 -64q40 0 69 42t29 97v241h153v-497zM383 643l-50 -89l-206 93l61 106z" />
    <glyph glyph-name="ucircumflex" unicode="&#xfb;" horiz-adv-x="566" 
d="M508 0h-142q0 49 6 78h-2q-52 -89 -164 -89q-78 0 -113 43t-35 114v351h153v-316q0 -64 46 -64q40 0 69 42t29 97v241h153v-497zM441 652l-43 -90l-118 60l-117 -60l-42 89l159 84z" />
    <glyph glyph-name="udieresis" unicode="&#xfc;" horiz-adv-x="566" 
d="M508 0h-142q0 49 6 78h-2q-52 -89 -164 -89q-78 0 -113 43t-35 114v351h153v-316q0 -64 46 -64q40 0 69 42t29 97v241h153v-497zM459 645q0 -33 -23 -56t-56 -23q-32 0 -55.5 23t-23.5 56q0 32 23.5 55.5t55.5 23.5q33 0 56 -23.5t23 -55.5zM250 645q0 -33 -23 -56
t-56 -23q-32 0 -55.5 23t-23.5 56q0 32 23.5 55.5t55.5 23.5q33 0 56 -23.5t23 -55.5z" />
    <glyph glyph-name="degree" unicode="&#xb0;" horiz-adv-x="396" 
d="M354 599q0 -71 -49 -111t-116 -40q-72 0 -113 39.5t-41 108.5q0 68 49 108.5t113 40.5q79 0 118 -41t39 -105zM243 599q0 21 -12.5 36.5t-34.5 15.5t-36 -15t-14 -39q0 -25 13 -39.5t36 -14.5q22 0 35 15.5t13 40.5z" />
    <glyph glyph-name="registered" unicode="&#xae;" horiz-adv-x="565" 
d="M380 423h-80l-28 79h-9v-79h-67v220h101q80 0 80 -64q0 -44 -38 -61q7 -7 13 -24zM301 571q0 21 -25 21h-13v-44h10q28 0 28 23zM282 687q-64 0 -109 -45t-45 -109t45 -109.5t109 -45.5t109 45t45 109t-45 109.5t-109 45.5zM282 771q102 0 172.5 -69t70.5 -170
q0 -99 -71 -168.5t-172 -69.5q-102 0 -172.5 69t-70.5 169t71 169.5t172 69.5z" />
    <glyph glyph-name="copyright" unicode="&#xa9;" horiz-adv-x="765" 
d="M382 679q144 0 245 -101t101 -245q0 -143 -101.5 -244.5t-244.5 -101.5q-145 0 -245.5 101t-100.5 245q0 143 101.5 244.5t244.5 101.5zM382 566q-96 0 -164.5 -68t-68.5 -165q0 -96 68.5 -165t164.5 -69q97 0 165 68.5t68 165.5q0 96 -68 164.5t-165 68.5zM483 178
q-44 -22 -104 -22q-73 0 -117.5 47t-44.5 127q0 79 45 130.5t131 51.5q48 0 85 -17l-18 -98q-19 16 -57 16q-62 0 -62 -81q0 -72 57 -72q36 0 64 14z" />
    <glyph glyph-name="trademark" unicode="&#x2122;" horiz-adv-x="683" 
d="M658 394h-111l-15 104l-5 43l-7 -41l-25 -106h-95l-25 109l-7 38l-2 -36l-15 -111h-100l46 281h123l27 -102l7 -38l6 36l25 104h125zM249 583h-61v-189h-105v189h-64v92h230v-92z" />
    <glyph glyph-name="ff" unicode="&#xfb00;" horiz-adv-x="659" 
d="M670 731l-9 -124q-27 9 -55 9q-35 0 -51.5 -17.5t-16.5 -57.5v-44h103v-117h-103v-380h-152v380h-149v-380h-152v380h-76v117h76v23q0 211 243 211q75 0 135 -20q44 28 127 28q45 0 80 -8zM393 594q-30 12 -71 12q-85 0 -85 -80v-29h149v43q0 28 7 54z" />
    <glyph glyph-name="infinity" unicode="&#x221e;" horiz-adv-x="991" 
d="M955 279q0 -87 -58 -144t-162 -57t-245 103q-141 -103 -251 -103q-98 0 -151 53.5t-53 135.5q0 89 60 145t154 56q110 0 249 -106q140 106 249 106q96 0 152 -53t56 -136zM811 275q0 26 -18.5 43t-49.5 17q-47 0 -131 -60q85 -64 130 -64q33 0 51 18t18 46zM376 270
q-87 65 -128 65q-32 0 -50 -18t-18 -45t18.5 -44t48.5 -17q47 0 129 59z" />
    <glyph glyph-name="plusminus" unicode="&#xb1;" horiz-adv-x="598" 
d="M550 261h-178v-178h-145v178h-178v126h178v176h145v-176h178v-126zM544 -90h-490v127h490v-127z" />
    <glyph glyph-name="ffi" unicode="&#xfb03;" horiz-adv-x="897" 
d="M841 0h-152v380h-151v-380h-152v380h-149v-380h-152v380h-76v117h76v23q0 211 245 211q77 0 150 -25q60 35 165 35q73 0 168 -19l-26 -126q-74 19 -127 19q-122 0 -122 -96v-22h303v-497zM398 593q-32 13 -76 13q-85 0 -85 -80v-29h149v15q0 49 12 81z" />
    <glyph glyph-name="ffl" unicode="&#xfb04;" horiz-adv-x="897" 
d="M841 0h-152v611q-33 5 -59 5q-92 0 -92 -81v-38h93v-117h-93v-380h-152v380h-149v-380h-152v380h-76v117h76v23q0 211 245 211q75 0 149 -24q63 34 164 34q81 0 198 -19v-722zM394 595q-32 11 -72 11q-85 0 -85 -80v-29h149v42q0 27 8 56z" />
    <glyph glyph-name="mu" unicode="&#xb5;" horiz-adv-x="608" 
d="M542 0h-143q0 43 3 69h-1q-14 -32 -44.5 -54t-75.5 -22q-39 0 -64 18l-1 -1q2 -40 2 -92v-155h-153v734h153v-296q0 -48 18 -67.5t54 -19.5q43 0 71.5 39.5t28.5 102.5v241h152v-497z" />
    <glyph glyph-name="partialdiff" unicode="&#x2202;" horiz-adv-x="887" 
d="M856 275q0 -126 -72 -206t-200 -80q-103 0 -197 25v597q-32 5 -59 5q-91 0 -91 -81v-38h93v-117h-93v-380h-152v380h-76v117h76v42q0 93 62 147.5t194 54.5q82 0 199 -19v-188q0 -57 -8 -99l1 -1q18 34 55 54t86 20q89 0 135.5 -61.5t46.5 -171.5zM696 260q0 121 -69 121
q-39 0 -63 -39t-24 -100v-125q20 -6 52 -6q104 0 104 149z" />
    <glyph glyph-name="summation" unicode="&#x2211;" horiz-adv-x="893" 
d="M837 0h-153v316q0 64 -46 64q-40 0 -69 -42t-29 -98v-240h-153v611q-32 5 -59 5q-91 0 -91 -81v-38h93v-117h-93v-380h-152v380h-76v117h76v42q0 93 62 147.5t194 54.5q82 0 199 -19v-191q0 -62 -9 -102h1q49 79 157 79q78 0 113 -43t35 -114v-351z" />
    <glyph glyph-name="product" unicode="&#x220f;" horiz-adv-x="596" 
d="M540 -25q0 -107 -48.5 -163t-159.5 -56q-35 0 -72 10l9 129q28 -11 57 -11q34 0 47.5 17t13.5 57v422h-150v-380h-152v380h-76v117h76v15q0 115 62 172t192 57q75 0 164 -19l-25 -126q-66 19 -123 19q-62 0 -90 -23.5t-28 -72.5v-22h303v-522z" />
    <glyph glyph-name="pi" unicode="&#x3c0;" horiz-adv-x="667" 
d="M628 0q-53 -12 -116 -12q-65 0 -94.5 32t-29.5 98v255h-118v-373h-141v373h-90v124h579v-124h-89v-180q0 -61 9 -78.5t37 -17.5q26 0 44 6z" />
    <glyph glyph-name="integral" unicode="&#x222b;" horiz-adv-x="870" 
d="M387 611q-32 5 -59 5q-91 0 -91 -81v-38h93v-117h-93v-380h-152v380h-76v117h76v42q0 93 62 147.5t194 54.5q82 0 199 -19v-425l125 200h187l-164 -228l176 -269h-190l-134 239v-239h-153v611z" />
    <glyph glyph-name="Omega" unicode="&#x2126;" horiz-adv-x="749" 
d="M691 0h-273v106q54 33 84.5 96.5t30.5 149.5q0 93 -42.5 152t-116.5 59t-119.5 -58t-45.5 -151q0 -90 28.5 -149.5t90.5 -98.5v-106h-273v114h117q-112 81 -112 240q0 144 89 239t235 95q135 0 219.5 -85.5t84.5 -237.5q0 -78 -32 -145.5t-87 -105.5h122v-114z" />
    <glyph glyph-name="logicalnot" unicode="&#xac;" horiz-adv-x="577" 
d="M525 55h-136v144h-357v124h493v-268z" />
    <glyph glyph-name="radical" unicode="&#x221a;" horiz-adv-x="622" 
d="M622 758l-230 -758h-179l-125 383h-84v114h211l70 -238q15 -51 21 -86h2q8 53 17 83l129 502h168z" />
    <glyph glyph-name="approxequal" unicode="&#x2248;" horiz-adv-x="600" 
d="M539 331q-68 -70 -147 -70q-40 0 -96.5 29t-92.5 29q-49 0 -101 -42l-48 100q74 69 153 69q47 0 104.5 -29t81.5 -29q49 0 95 43zM540 114q-31 -28 -72 -46.5t-77 -18.5q-47 0 -103 29t-85 29q-47 0 -98 -43l-51 101q75 69 145 69q46 0 102.5 -29t94.5 -29q55 0 95 39z
" />
    <glyph glyph-name="Delta" unicode="&#x2206;" horiz-adv-x="767" 
d="M745 0h-723l287 700h149zM518 140l-141 357l-141 -357h282z" />
    <glyph glyph-name="nbspace" unicode="&#xa0;" horiz-adv-x="400" 
 />
    <glyph glyph-name="Agrave" unicode="&#xc0;" horiz-adv-x="633" 
d="M638 0h-171l-42 125h-233l-41 -125h-155l228 675h177zM386 248l-47 135q-23 68 -31 112h-2q-11 -59 -32 -120l-44 -127h156zM391 801l-50 -89l-206 93l61 106z" />
    <glyph glyph-name="Atilde" unicode="&#xc3;" horiz-adv-x="633" 
d="M638 0h-171l-42 125h-233l-41 -125h-155l228 675h177zM386 248l-47 135q-23 68 -31 112h-2q-11 -59 -32 -120l-44 -127h156zM492 765q-18 -16 -49 -29.5t-58 -13.5q-43 0 -85.5 24.5t-72.5 24.5q-37 0 -69 -32l-27 101q50 45 107 45q39 0 82 -25t73 -25q41 0 72 31z" />
    <glyph glyph-name="Otilde" unicode="&#xd5;" horiz-adv-x="702" 
d="M674 348q0 -163 -95.5 -262t-239.5 -99q-154 0 -232.5 90t-78.5 252q0 161 96.5 260t238.5 99q141 0 226 -85t85 -255zM509 338q0 102 -40.5 155t-117.5 53q-66 0 -112 -52t-46 -152q0 -101 38.5 -156.5t116.5 -55.5q64 0 112.5 51.5t48.5 156.5zM537 769
q-18 -16 -49 -29.5t-58 -13.5q-43 0 -85.5 24.5t-72.5 24.5q-37 0 -69 -32l-27 101q50 45 107 45q39 0 82 -25t73 -25q41 0 72 31z" />
    <glyph glyph-name="divide" unicode="&#xf7;" horiz-adv-x="616" 
d="M398 458q0 -37 -26.5 -63.5t-63.5 -26.5t-63.5 26.5t-26.5 63.5t26.5 63.5t63.5 26.5t63.5 -26.5t26.5 -63.5zM567 194h-518v128h518v-128zM398 57q0 -37 -26.5 -63.5t-63.5 -26.5t-63.5 26.5t-26.5 63.5t26.5 63.5t63.5 26.5t63.5 -26.5t26.5 -63.5z" />
    <glyph glyph-name="lozenge" unicode="&#x25ca;" horiz-adv-x="630" 
d="M616 336l-251 -346h-96l-255 348l254 347h95zM449 332l-139 186l-127 -176l136 -187z" />
    <glyph glyph-name="ydieresis" unicode="&#xff;" horiz-adv-x="516" 
d="M517 497l-203 -540q-43 -116 -93 -158.5t-138 -42.5q-34 0 -74 9l9 130q36 -12 71 -12q28 0 47 16t33 58l14 43l-180 497h168l50 -145q19 -53 40 -145h1q18 75 47 160l45 130h163zM439 645q0 -33 -23 -56t-56 -23q-32 0 -55.5 23t-23.5 56q0 32 23.5 55.5t55.5 23.5
q33 0 56 -23.5t23 -55.5zM230 645q0 -33 -23 -56t-56 -23q-32 0 -55.5 23t-23.5 56q0 32 23.5 55.5t55.5 23.5q33 0 56 -23.5t23 -55.5z" />
    <glyph glyph-name="Ydieresis" unicode="&#x178;" horiz-adv-x="578" 
d="M579 675l-214 -439v-236h-156v235l-211 440h170l77 -172q27 -60 43 -108h2q13 39 52 122l73 158h164zM466 798q0 -33 -23 -56t-56 -23q-32 0 -55.5 23t-23.5 56q0 32 23.5 55.5t55.5 23.5q33 0 56 -23.5t23 -55.5zM257 798q0 -33 -23 -56t-56 -23q-32 0 -55.5 23
t-23.5 56q0 32 23.5 55.5t55.5 23.5q33 0 56 -23.5t23 -55.5z" />
    <glyph glyph-name="scaron" unicode="&#x161;" horiz-adv-x="555" 
d="M499 -2q0 -243 -285 -243q-87 0 -156 20l12 139q71 -30 150 -30q66 0 97.5 24.5t31.5 80.5v18q0 37 5 62h-2q-19 -37 -55 -58t-82 -21q-90 0 -137.5 59.5t-47.5 171.5q0 127 72.5 207t204.5 80q92 0 192 -16v-494zM347 261v119q-30 6 -52 6q-104 0 -104 -149
q0 -120 68 -120q39 0 63.5 40t24.5 104z" />
    <glyph glyph-name="Acircumflex" unicode="&#xc2;" horiz-adv-x="633" 
d="M638 0h-171l-42 125h-233l-41 -125h-155l228 675h177zM386 248l-47 135q-23 68 -31 112h-2q-11 -59 -32 -120l-44 -127h156zM474 810l-43 -90l-118 60l-117 -60l-42 89l159 84z" />
    <glyph glyph-name="Ecircumflex" unicode="&#xca;" horiz-adv-x="487" 
d="M440 0h-380v675h380v-131h-224v-134h212v-127h-212v-149h224v-134zM409 810l-43 -90l-118 60l-117 -60l-42 89l159 84z" />
    <glyph glyph-name="Aacute" unicode="&#xc1;" horiz-adv-x="633" 
d="M638 0h-171l-42 125h-233l-41 -125h-155l228 675h177zM386 248l-47 135q-23 68 -31 112h-2q-11 -59 -32 -120l-44 -127h156zM463 805l-205 -92l-49 88l195 109z" />
    <glyph glyph-name="Edieresis" unicode="&#xcb;" horiz-adv-x="487" 
d="M440 0h-380v675h380v-131h-224v-134h212v-127h-212v-149h224v-134zM433 798q0 -33 -23 -56t-56 -23q-32 0 -55.5 23t-23.5 56q0 32 23.5 55.5t55.5 23.5q33 0 56 -23.5t23 -55.5zM224 798q0 -33 -23 -56t-56 -23q-32 0 -55.5 23t-23.5 56q0 32 23.5 55.5t55.5 23.5
q33 0 56 -23.5t23 -55.5z" />
    <glyph glyph-name="Egrave" unicode="&#xc8;" horiz-adv-x="487" 
d="M440 0h-380v675h380v-131h-224v-134h212v-127h-212v-149h224v-134zM347 801l-50 -89l-206 93l61 106z" />
    <glyph glyph-name="Iacute" unicode="&#xcd;" horiz-adv-x="276" 
d="M216 0h-156v675h156v-675zM278 805l-205 -92l-49 87l195 110z" />
    <glyph glyph-name="Icircumflex" unicode="&#xce;" horiz-adv-x="276" 
d="M216 0h-156v675h156v-675zM300 810l-43 -91l-119 61l-117 -61l-41 89l159 85z" />
    <glyph glyph-name="Idieresis" unicode="&#xcf;" horiz-adv-x="276" 
d="M216 0h-156v675h156v-675zM320 798q0 -33 -23.5 -56t-55.5 -23q-33 0 -56 23t-23 56q0 32 23 55.5t56 23.5q32 0 55.5 -23.5t23.5 -55.5zM111 798q0 -33 -23.5 -56t-55.5 -23q-33 0 -56 23t-23 56q0 32 23 55.5t56 23.5q32 0 55.5 -23.5t23.5 -55.5z" />
    <glyph glyph-name="Igrave" unicode="&#xcc;" horiz-adv-x="276" 
d="M216 0h-156v675h156v-675zM252 801l-50 -89l-206 92l61 107z" />
    <glyph glyph-name="Oacute" unicode="&#xd3;" horiz-adv-x="702" 
d="M674 348q0 -163 -95.5 -262t-239.5 -99q-154 0 -232.5 90t-78.5 252q0 161 96.5 260t238.5 99q141 0 226 -85t85 -255zM509 338q0 102 -40.5 155t-117.5 53q-66 0 -112 -52t-46 -152q0 -101 38.5 -156.5t116.5 -55.5q64 0 112.5 51.5t48.5 156.5zM524 805l-205 -92
l-49 88l195 109z" />
    <glyph glyph-name="Ocircumflex" unicode="&#xd4;" horiz-adv-x="702" 
d="M674 348q0 -163 -95.5 -262t-239.5 -99q-154 0 -232.5 90t-78.5 252q0 161 96.5 260t238.5 99q141 0 226 -85t85 -255zM509 338q0 102 -40.5 155t-117.5 53q-66 0 -112 -52t-46 -152q0 -101 38.5 -156.5t116.5 -55.5q64 0 112.5 51.5t48.5 156.5zM522 810l-43 -90
l-118 60l-117 -60l-42 89l159 84z" />
    <glyph glyph-name="apple" horiz-adv-x="1963" 
d="M211 492l247 -27q-7 -54 0 -105l-247 -27q-12 82 0 159zM383 901q56 67 111 110l156 -193q-40 -31 -73 -73zM1035 932q-49 6 -105 -1l-27 244q72 10 157 0zM1316 820l152 190q61 -49 110 -111l-188 -152q-34 43 -74 73zM1752 491q9 -78 1 -157l-243 26q7 51 0 105z
M1382 412q0 -74 -26 -143t-72 -120v-123l-25 -6l49 -116l-47 -13l47 -112l-50 -13l14 -35l-47 -113h-92q-6 -32 -49 -53.5t-103 -21.5q-61 0 -104 21.5t-48 53.5h-91l-86 206l48 13l-49 116l53 13l-28 67v119q-96 114 -96 260q0 166 117.5 283.5t283.5 117.5t283.5 -117.5
t117.5 -283.5zM797 199h66l-22 187q-22 -5 -59 -19q-15 -6 -23 19.5t-4.5 55t15.5 33.5q108 32 211 32q102 0 214 -32q12 -3 15 -32.5t-5 -55t-24 -19.5q-33 12 -61 18l-21 -187h67q97 86 97 213q0 117 -82.5 199.5t-199.5 82.5q-116 0 -199 -82.5t-83 -199.5q0 -62 26 -118
t72 -95zM1034 399q-20 3 -53 3q-34 0 -55 -3l21 -200h68zM1161 105h-361v-64l20 -47l341 87v24zM1161 -48l-17 40l-346 -88l17 -40zM1162 -175l-17 39l-346 -89l33 -79h298l15 36l-5 11l-100 -25l-25 70zM967 448v1h-2v6h-1v-7h3zM973 453h-1v-4q0 -1 -1 -1t-1 1v4h-1v-4
q0 -1 2 -1t2 1v4zM978 448v1q-1 -1 -2 0q1 2 2 3v1q-3 1 -3 -2q1 -2 3 -3zM981 446h1q-1 5 0 10h-1q-1 -5 0 -10zM987 449v-1h1v4q0 3 -4 1v-1q3 2 3 -1q-3 0 -3 -2q1 -1 3 0zM987 450q-1 0 -2 -1q0 1 2 1zM994 450q0 1 -2 2h-1q0 1 3 1v1q-4 0 -4 -2q0 -1 2 -2h1
q0 -1 -3 -1v-1q4 0 4 2zM997 446q1 5 0 10h-1q1 -5 0 -10h1z" />
    <glyph glyph-name="Ograve" unicode="&#xd2;" horiz-adv-x="702" 
d="M674 348q0 -163 -95.5 -262t-239.5 -99q-154 0 -232.5 90t-78.5 252q0 161 96.5 260t238.5 99q141 0 226 -85t85 -255zM509 338q0 102 -40.5 155t-117.5 53q-66 0 -112 -52t-46 -152q0 -101 38.5 -156.5t116.5 -55.5q64 0 112.5 51.5t48.5 156.5zM462 801l-50 -89
l-206 93l61 106z" />
    <glyph glyph-name="Uacute" unicode="&#xda;" horiz-adv-x="673" 
d="M613 265q0 -140 -74.5 -209t-211.5 -69q-78 0 -132 19.5t-82.5 56t-40.5 78.5t-12 97v437h156v-428q0 -64 26.5 -96.5t94.5 -32.5q66 0 94 31.5t28 106.5v419h154v-410zM498 805l-205 -92l-49 88l195 109z" />
    <glyph glyph-name="Ucircumflex" unicode="&#xdb;" horiz-adv-x="673" 
d="M613 265q0 -140 -74.5 -209t-211.5 -69q-78 0 -132 19.5t-82.5 56t-40.5 78.5t-12 97v437h156v-428q0 -64 26.5 -96.5t94.5 -32.5q66 0 94 31.5t28 106.5v419h154v-410zM497 810l-43 -90l-118 60l-117 -60l-42 89l159 84z" />
    <glyph glyph-name="Ugrave" unicode="&#xd9;" horiz-adv-x="673" 
d="M613 265q0 -140 -74.5 -209t-211.5 -69q-78 0 -132 19.5t-82.5 56t-40.5 78.5t-12 97v437h156v-428q0 -64 26.5 -96.5t94.5 -32.5q66 0 94 31.5t28 106.5v419h154v-410zM427 801l-50 -89l-206 93l61 106z" />
    <glyph glyph-name="Euro" unicode="&#x20ac;" horiz-adv-x="550" 
d="M520 17q-78 -30 -164 -30q-118 0 -184 55.5t-85 171.5h-75v88h68v11q0 38 2 56h-70v88h83q27 112 101 171.5t191 59.5q69 0 128 -16l-26 -128q-48 16 -104 16q-100 0 -130 -103h147v-88h-160q-1 -10 -1 -30q0 -25 1 -37h160v-88h-148q14 -52 45.5 -75.5t85.5 -23.5
q53 0 108 20z" />
  </font>
</defs>
</svg>
